M48
;DRILL file {KiCad 4.0.7} date 12/10/17 08:55:48
;FORMAT={3:3/ absolute / metric / keep zeros}
FMAT,2
METRIC,TZ
T1C0.800
T2C0.900
T3C1.000
T4C1.199
%
G90
G05
M71
T1
X097218Y-096012
X097218Y-103632
X102684Y-093142
X103355Y-094742
X105855Y-094742
X106525Y-096342
X114300Y-084773
X114300Y-105347
X114300Y-112967
X114340Y-100393
X116840Y-100393
X119253Y-103949
X119253Y-108849
X119685Y-077887
X121285Y-074716
X121285Y-077216
X121920Y-084773
X122885Y-074045
X124714Y-084773
X124714Y-087313
X124714Y-089852
X124714Y-092393
X124714Y-094933
X124714Y-097473
X124714Y-100012
X124714Y-102552
X124714Y-105093
X124714Y-107632
X124714Y-110173
X124714Y-112713
X124714Y-115253
X124714Y-117793
X130543Y-077887
X132144Y-074716
X132144Y-077216
X132334Y-084773
X132334Y-087313
X132334Y-089852
X132334Y-092393
X132334Y-094933
X132334Y-097473
X132334Y-100012
X132334Y-102552
X132334Y-105093
X132334Y-107632
X132334Y-110173
X132334Y-112713
X132334Y-115253
X132334Y-117793
X133744Y-074045
X135636Y-101156
X135636Y-103656
X141529Y-077910
X143129Y-074740
X143129Y-077240
X144729Y-074069
X149652Y-110149
X149652Y-117769
X150002Y-091180
X150002Y-098800
X153165Y-112632
X153165Y-115172
X153165Y-117712
X153165Y-120252
X153555Y-093723
X153555Y-096263
X153555Y-098803
X153555Y-101343
X160785Y-112632
X160785Y-115172
X160785Y-117712
X160785Y-120252
X161175Y-093723
X161175Y-096263
X161175Y-098803
X161175Y-101343
X163385Y-116332
X164098Y-110848
X164163Y-096260
X164163Y-099626
X164228Y-122931
X164663Y-085669
X164925Y-091561
X166098Y-110848
X166925Y-091561
X171006Y-116332
X171783Y-096260
X171783Y-099626
X171848Y-122931
X172283Y-085669
X173609Y-113792
X173609Y-121412
X175140Y-085606
X175277Y-122867
X182760Y-085606
X182897Y-122867
T2
X103823Y-103632
X106363Y-103632
X119507Y-115126
X119507Y-117666
X127067Y-125144
X128524Y-123063
X153081Y-108562
X153558Y-090291
X160701Y-108562
X161178Y-090291
T3
X096520Y-086233
X096520Y-088773
X096520Y-091313
X097218Y-106934
X099759Y-106934
X114046Y-117666
X114046Y-120206
X114300Y-089980
X114300Y-092519
X114300Y-095060
X114300Y-097599
X117602Y-089980
X117602Y-092519
X117602Y-095060
X117602Y-097599
X120650Y-089980
X120650Y-092519
X120650Y-095060
X120650Y-097599
X129148Y-126601
X130605Y-124520
X137287Y-110173
X137287Y-112713
X137287Y-115253
X138938Y-085408
X138938Y-087948
X138938Y-090488
X138938Y-093027
X139827Y-110173
X139827Y-112713
X139827Y-115253
X165498Y-126868
X165996Y-081732
X168038Y-126868
X168536Y-081732
X170578Y-126868
X171076Y-081732
X176166Y-126804
X176537Y-081732
X178706Y-126804
X179077Y-081732
X181246Y-126804
X181617Y-081732
T4
X096901Y-074422
X096901Y-077922
X111379Y-074450
X111379Y-077950
X186182Y-098481
X186182Y-101981
X186182Y-105481
T0
M30
